<svg width="293" height="36" viewBox="0 0 293 36" fill="none" xmlns="http://www.w3.org/2000/svg">
<path d="M5.985 6.125V11.095H14V15.715H5.985V21.105H15.05V25.9H0V1.33H15.05V6.125H5.985Z" fill="#D10030"/>
<path d="M30.4855 25.9L26.7405 20.475L23.5905 25.9H17.1155L23.5555 15.925L16.9405 6.37H23.6605L27.4055 11.76L30.5555 6.37H37.0305L30.4855 16.205L37.2055 25.9H30.4855Z" fill="#D10030"/>
<path d="M45.4967 9.135C46.0801 8.225 46.8851 7.49 47.9117 6.93C48.9384 6.37 50.1401 6.09 51.5167 6.09C53.1267 6.09 54.5851 6.49833 55.8917 7.315C57.1984 8.13167 58.2251 9.29833 58.9717 10.815C59.7417 12.3317 60.1267 14.0933 60.1267 16.1C60.1267 18.1067 59.7417 19.88 58.9717 21.42C58.2251 22.9367 57.1984 24.115 55.8917 24.955C54.5851 25.7717 53.1267 26.18 51.5167 26.18C50.1634 26.18 48.9617 25.9 47.9117 25.34C46.8851 24.78 46.0801 24.0567 45.4967 23.17V35.21H39.5117V6.37H45.4967V9.135ZM54.0367 16.1C54.0367 14.6067 53.6167 13.44 52.7767 12.6C51.9601 11.7367 50.9451 11.305 49.7317 11.305C48.5417 11.305 47.5267 11.7367 46.6867 12.6C45.8701 13.4633 45.4617 14.6417 45.4617 16.135C45.4617 17.6283 45.8701 18.8067 46.6867 19.67C47.5267 20.5333 48.5417 20.965 49.7317 20.965C50.9217 20.965 51.9367 20.5333 52.7767 19.67C53.6167 18.7833 54.0367 17.5933 54.0367 16.1Z" fill="#D10030"/>
<path d="M81.6766 15.82C81.6766 16.38 81.6416 16.9633 81.5716 17.57H68.0266C68.1199 18.7833 68.5049 19.7167 69.1816 20.37C69.8816 21 70.7333 21.315 71.7366 21.315C73.2299 21.315 74.2683 20.685 74.8516 19.425H81.2216C80.8949 20.7083 80.2999 21.8633 79.4366 22.89C78.5966 23.9167 77.5349 24.7217 76.2516 25.305C74.9683 25.8883 73.5333 26.18 71.9466 26.18C70.0333 26.18 68.3299 25.7717 66.8366 24.955C65.3433 24.1383 64.1766 22.9717 63.3366 21.455C62.4966 19.9383 62.0766 18.165 62.0766 16.135C62.0766 14.105 62.4849 12.3317 63.3016 10.815C64.1416 9.29833 65.3083 8.13167 66.8016 7.315C68.2949 6.49833 70.0099 6.09 71.9466 6.09C73.8366 6.09 75.5166 6.48667 76.9866 7.28C78.4566 8.07333 79.5999 9.205 80.4166 10.675C81.2566 12.145 81.6766 13.86 81.6766 15.82ZM75.5516 14.245C75.5516 13.2183 75.2016 12.4017 74.5016 11.795C73.8016 11.1883 72.9266 10.885 71.8766 10.885C70.8733 10.885 70.0216 11.1767 69.3216 11.76C68.6449 12.3433 68.2249 13.1717 68.0616 14.245H75.5516Z" fill="#D10030"/>
<path d="M96.734 6.16C99.0207 6.16 100.841 6.90667 102.194 8.4C103.571 9.87 104.259 11.9 104.259 14.49V25.9H98.309V15.295C98.309 13.9883 97.9707 12.9733 97.294 12.25C96.6173 11.5267 95.7073 11.165 94.564 11.165C93.4207 11.165 92.5107 11.5267 91.834 12.25C91.1573 12.9733 90.819 13.9883 90.819 15.295V25.9H84.834V6.37H90.819V8.96C91.4257 8.09667 92.2423 7.42 93.269 6.93C94.2956 6.41667 95.4507 6.16 96.734 6.16Z" fill="#D10030"/>
<path d="M116.363 26.18C114.66 26.18 113.143 25.8883 111.813 25.305C110.483 24.7217 109.433 23.9283 108.663 22.925C107.893 21.8983 107.461 20.755 107.368 19.495H113.283C113.353 20.1717 113.668 20.72 114.228 21.14C114.788 21.56 115.476 21.77 116.293 21.77C117.04 21.77 117.611 21.63 118.008 21.35C118.428 21.0467 118.638 20.6617 118.638 20.195C118.638 19.635 118.346 19.2267 117.763 18.97C117.18 18.69 116.235 18.3867 114.928 18.06C113.528 17.7333 112.361 17.395 111.428 17.045C110.495 16.6717 109.69 16.1 109.013 15.33C108.336 14.5367 107.998 13.475 107.998 12.145C107.998 11.025 108.301 10.01 108.908 9.1C109.538 8.16667 110.448 7.43167 111.638 6.895C112.851 6.35833 114.286 6.09 115.943 6.09C118.393 6.09 120.318 6.69667 121.718 7.91C123.141 9.12333 123.958 10.7333 124.168 12.74H118.638C118.545 12.0633 118.241 11.5267 117.728 11.13C117.238 10.7333 116.585 10.535 115.768 10.535C115.068 10.535 114.531 10.675 114.158 10.955C113.785 11.2117 113.598 11.5733 113.598 12.04C113.598 12.6 113.89 13.02 114.473 13.3C115.08 13.58 116.013 13.86 117.273 14.14C118.72 14.5133 119.898 14.8867 120.808 15.26C121.718 15.61 122.511 16.1933 123.188 17.01C123.888 17.8033 124.25 18.8767 124.273 20.23C124.273 21.3733 123.946 22.4 123.293 23.31C122.663 24.1967 121.741 24.8967 120.528 25.41C119.338 25.9233 117.95 26.18 116.363 26.18Z" fill="#D10030"/>
<path d="M146.345 15.82C146.345 16.38 146.31 16.9633 146.24 17.57H132.695C132.788 18.7833 133.173 19.7167 133.85 20.37C134.55 21 135.401 21.315 136.405 21.315C137.898 21.315 138.936 20.685 139.52 19.425H145.89C145.563 20.7083 144.968 21.8633 144.105 22.89C143.265 23.9167 142.203 24.7217 140.92 25.305C139.636 25.8883 138.201 26.18 136.615 26.18C134.701 26.18 132.998 25.7717 131.505 24.955C130.011 24.1383 128.845 22.9717 128.005 21.455C127.165 19.9383 126.745 18.165 126.745 16.135C126.745 14.105 127.153 12.3317 127.97 10.815C128.81 9.29833 129.976 8.13167 131.47 7.315C132.963 6.49833 134.678 6.09 136.615 6.09C138.505 6.09 140.185 6.48667 141.655 7.28C143.125 8.07333 144.268 9.205 145.085 10.675C145.925 12.145 146.345 13.86 146.345 15.82ZM140.22 14.245C140.22 13.2183 139.87 12.4017 139.17 11.795C138.47 11.1883 137.595 10.885 136.545 10.885C135.541 10.885 134.69 11.1767 133.99 11.76C133.313 12.3433 132.893 13.1717 132.73 14.245H140.22Z" fill="#D10030"/>
<path d="M174.594 1.33V6.125H168.084V25.9H162.099V6.125H155.589V1.33H174.594Z" fill="#D10030"/>
<path d="M183.583 9.625C184.283 8.55167 185.158 7.71167 186.208 7.105C187.258 6.475 188.424 6.16 189.708 6.16V12.495H188.063C186.569 12.495 185.449 12.8217 184.703 13.475C183.956 14.105 183.583 15.225 183.583 16.835V25.9H177.598V6.37H183.583V9.625Z" fill="#D10030"/>
<path d="M191.378 16.1C191.378 14.0933 191.752 12.3317 192.498 10.815C193.268 9.29833 194.307 8.13167 195.613 7.315C196.92 6.49833 198.378 6.09 199.988 6.09C201.365 6.09 202.567 6.37 203.593 6.93C204.643 7.49 205.448 8.225 206.008 9.135V6.37H211.993V25.9H206.008V23.135C205.425 24.045 204.608 24.78 203.558 25.34C202.532 25.9 201.33 26.18 199.953 26.18C198.367 26.18 196.92 25.7717 195.613 24.955C194.307 24.115 193.268 22.9367 192.498 21.42C191.752 19.88 191.378 18.1067 191.378 16.1ZM206.008 16.135C206.008 14.6417 205.588 13.4633 204.748 12.6C203.932 11.7367 202.928 11.305 201.738 11.305C200.548 11.305 199.533 11.7367 198.693 12.6C197.877 13.44 197.468 14.6067 197.468 16.1C197.468 17.5933 197.877 18.7833 198.693 19.67C199.533 20.5333 200.548 20.965 201.738 20.965C202.928 20.965 203.932 20.5333 204.748 19.67C205.588 18.8067 206.008 17.6283 206.008 16.135Z" fill="#D10030"/>
<path d="M215.133 16.135C215.133 14.105 215.542 12.3317 216.358 10.815C217.198 9.29833 218.353 8.13167 219.823 7.315C221.317 6.49833 223.02 6.09 224.933 6.09C227.383 6.09 229.425 6.73167 231.058 8.015C232.715 9.29833 233.8 11.1067 234.313 13.44H227.943C227.407 11.9467 226.368 11.2 224.828 11.2C223.732 11.2 222.857 11.6317 222.203 12.495C221.55 13.335 221.223 14.5483 221.223 16.135C221.223 17.7217 221.55 18.9467 222.203 19.81C222.857 20.65 223.732 21.07 224.828 21.07C226.368 21.07 227.407 20.3233 227.943 18.83H234.313C233.8 21.1167 232.715 22.9133 231.058 24.22C229.402 25.5267 227.36 26.18 224.933 26.18C223.02 26.18 221.317 25.7717 219.823 24.955C218.353 24.1383 217.198 22.9717 216.358 21.455C215.542 19.9383 215.133 18.165 215.133 16.135Z" fill="#D10030"/>
<path d="M249.45 25.9L243.5 17.71V25.9H237.515V0H243.5V14.315L249.415 6.37H256.8L248.68 16.17L256.87 25.9H249.45Z" fill="#D10030"/>
<path d="M277.56 15.82C277.56 16.38 277.525 16.9633 277.455 17.57H263.91C264.004 18.7833 264.389 19.7167 265.065 20.37C265.765 21 266.617 21.315 267.62 21.315C269.114 21.315 270.152 20.685 270.735 19.425H277.105C276.779 20.7083 276.184 21.8633 275.32 22.89C274.48 23.9167 273.419 24.7217 272.135 25.305C270.852 25.8883 269.417 26.18 267.83 26.18C265.917 26.18 264.214 25.7717 262.72 24.955C261.227 24.1383 260.06 22.9717 259.22 21.455C258.38 19.9383 257.96 18.165 257.96 16.135C257.96 14.105 258.369 12.3317 259.185 10.815C260.025 9.29833 261.192 8.13167 262.685 7.315C264.179 6.49833 265.894 6.09 267.83 6.09C269.72 6.09 271.4 6.48667 272.87 7.28C274.34 8.07333 275.484 9.205 276.3 10.675C277.14 12.145 277.56 13.86 277.56 15.82ZM271.435 14.245C271.435 13.2183 271.085 12.4017 270.385 11.795C269.685 11.1883 268.81 10.885 267.76 10.885C266.757 10.885 265.905 11.1767 265.205 11.76C264.529 12.3433 264.109 13.1717 263.945 14.245H271.435Z" fill="#D10030"/>
<path d="M286.703 9.625C287.403 8.55167 288.278 7.71167 289.328 7.105C290.378 6.475 291.544 6.16 292.828 6.16V12.495H291.183C289.689 12.495 288.569 12.8217 287.823 13.475C287.076 14.105 286.703 15.225 286.703 16.835V25.9H280.718V6.37H286.703V9.625Z" fill="#D10030"/>
</svg>
